<svg width="229" height="228" xmlns="http://www.w3.org/2000/svg" xmlns:xlink="http://www.w3.org/1999/xlink" overflow="hidden"><defs><clipPath id="clip0"><rect x="243" y="184" width="229" height="228"/></clipPath></defs><g clip-path="url(#clip0)" transform="translate(-243 -184)"><path d="M215.175 190 122.312 28.5C119.787 23.9747 114.071 22.3538 109.545 24.8796 108.026 25.7274 106.773 26.981 105.925 28.5L12.825 190C10.2213 194.578 11.8216 200.399 16.3993 203.003 17.8431 203.824 19.4764 204.254 21.1375 204.25L206.863 204.25C212.129 204.263 216.409 200.004 216.422 194.738 216.426 193.077 215.996 191.444 215.175 190ZM210.993 197.17C210.14 198.638 208.56 199.529 206.863 199.5L21.1375 199.5C19.4395 199.53 17.8588 198.637 17.0074 197.168 16.1217 195.699 16.0963 193.867 16.9409 192.375L110.076 30.8061C111.332 28.5751 114.159 27.7844 116.39 29.0406 117.153 29.4695 117.778 30.1055 118.194 30.875L211.023 192.306C211.894 193.814 211.883 195.674 210.993 197.17Z" stroke="#006666" stroke-width="3.16672" fill="none" transform="matrix(1.00439 0 0 1 243 184)"/><path d="M114 175.703C112.564 175.744 111.178 175.175 110.186 174.135 109.161 173.113 108.603 171.713 108.642 170.266 108.584 168.823 109.138 167.423 110.169 166.411 111.187 165.408 112.571 164.866 114 164.91 115.457 164.874 116.869 165.419 117.924 166.426 118.987 167.413 119.568 168.815 119.515 170.266 119.55 171.72 118.966 173.121 117.909 174.121 116.879 175.162 115.465 175.734 114 175.703Z" stroke="#006666" stroke-width="3.16672" fill="none" transform="matrix(1.00439 0 0 1 243 184)"/><path d="M111.39 148.675 110.623 73.1191 117.061 73.1191 116.294 148.675 111.39 148.675Z" stroke="#006666" stroke-width="3.16672" fill="none" transform="matrix(1.00439 0 0 1 243 184)"/></g></svg>