<svg width="322" height="322" xmlns="http://www.w3.org/2000/svg" xmlns:xlink="http://www.w3.org/1999/xlink" overflow="hidden"><defs><clipPath id="clip0"><rect x="529" y="147" width="322" height="322"/></clipPath></defs><g clip-path="url(#clip0)" transform="translate(-529 -147)"><path d="M776.202 349.256 776.202 315.926C776.202 314.073 774.7 312.572 772.848 312.572 770.995 312.572 769.494 314.073 769.494 315.926L769.494 322.674 680.323 322.674 703.189 299.809C703.659 299.325 704.052 298.772 704.356 298.169 727.463 270.442 723.718 229.233 695.991 206.126 668.264 183.019 627.054 186.764 603.948 214.491 591.27 229.703 586.174 249.842 590.089 269.253L563.86 295.482C561.241 298.102 561.241 302.348 563.86 304.968L626.2 367.312C628.82 369.931 633.066 369.931 635.686 367.312L645.396 357.585 769.5 342.692 769.5 349.256C769.5 351.109 771.002 352.61 772.855 352.61 774.707 352.61 776.209 351.109 776.209 349.256ZM612.673 214.868C635.567 191.951 672.705 191.932 695.623 214.826 715.651 234.834 718.53 266.291 702.467 289.602L640.848 227.98C638.228 225.361 633.982 225.361 631.362 227.98L595.929 263.41C593.705 245.511 599.887 227.59 612.673 214.868ZM630.947 362.572 568.603 300.225 636.105 232.722 698.338 294.956C698.228 295.08 698.137 295.217 698.03 295.341L698.104 295.408ZM653.084 349.924 673.628 329.383 769.494 329.383 769.494 335.954Z" stroke="#006666" stroke-width="3.00935" fill="none"/><path d="M774.86 388.835C774.86 393.466 778.615 397.221 783.246 397.221 787.877 397.221 791.631 393.466 791.631 388.835 791.631 383.133 783.246 370.723 783.246 370.723 783.246 370.723 774.86 383.133 774.86 388.835Z" stroke="#006666" stroke-width="3.00935" fill="none"/><path d="M742.996 412.315C742.996 416.946 746.75 420.7 751.381 420.7 756.012 420.7 759.767 416.946 759.767 412.315 759.767 406.613 751.381 394.202 751.381 394.202 751.381 394.202 742.996 406.613 742.996 412.315Z" stroke="#006666" stroke-width="3.00935" fill="none"/><path d="M811.756 400.91C811.756 400.91 803.371 413.321 803.371 419.023 803.371 423.654 807.125 427.408 811.756 427.408 816.387 427.408 820.142 423.654 820.142 419.023 820.142 413.321 811.756 400.91 811.756 400.91Z" stroke="#006666" stroke-width="3.00935" fill="none"/></g></svg>